<svg width="63" height="63" viewBox="0 0 63 63" fill="none" xmlns="http://www.w3.org/2000/svg">
<g clip-path="url(#clip0)">
<path d="M53.7014 28.3685L51.402 21.2924L38.2528 25.5649C36.7561 26.0513 35.2204 24.9357 35.2204 23.3616V9.53564H27.7799V23.3616C27.7799 24.9357 26.2442 26.0513 24.7475 25.5649L11.5983 21.2924L9.29883 28.3685L22.4485 32.6411C23.9453 33.1275 24.5316 34.9328 23.6064 36.206L15.4795 47.3918L21.4992 51.7647L29.6261 40.579C30.5508 39.3058 32.4494 39.3058 33.3742 40.579L41.5011 51.7647L47.5203 47.3918L39.3934 36.206C38.4686 34.9328 39.055 33.1275 40.5518 32.6411L53.7014 28.3685Z" fill="#C40B0B"/>
<path d="M34.9735 31.5C34.9735 33.4183 33.4186 34.9732 31.5003 34.9732C29.582 34.9732 28.0271 33.4183 28.0271 31.5C28.0271 29.5818 29.582 28.0269 31.5003 28.0269C33.4186 28.0269 34.9735 29.5818 34.9735 31.5Z" fill="#02133C"/>
<path d="M59.6152 17.2809C57.4739 13.0545 54.3439 9.29917 50.5636 6.42151C50.1584 6.11293 49.5792 6.19128 49.2707 6.59695C48.9616 7.00214 49.0399 7.58132 49.4456 7.8899C53.0053 10.5998 55.9527 14.1355 57.969 18.1148C60.0824 22.2859 61.1543 26.7896 61.1543 31.5C61.1543 39.4211 58.07 46.8679 52.4689 52.4689C46.8679 58.07 39.4211 61.1543 31.5 61.1543C23.5789 61.1543 16.1321 58.07 10.5311 52.4689C4.93005 46.8679 1.8457 39.4211 1.8457 31.5C1.8457 23.5789 4.93005 16.1321 10.5311 10.5311C16.1321 4.93005 23.5789 1.8457 31.5 1.8457C36.8006 1.8457 42.0022 3.26074 46.5415 5.93797C46.9808 6.19704 47.5461 6.05093 47.8052 5.61209C48.0642 5.17278 47.9181 4.60705 47.4793 4.34846C42.6559 1.50348 37.1304 0 31.5 0C23.0862 0 15.1756 3.2766 9.22611 9.22611C3.2766 15.1756 0 23.0862 0 31.5C0 39.9138 3.2766 47.8244 9.22611 53.7739C15.1756 59.7234 23.0862 63 31.5 63C39.9138 63 47.8244 59.7234 53.7739 53.7739C59.7234 47.8244 63 39.9138 63 31.5C63 26.4969 61.8613 21.713 59.6152 17.2809Z" fill="#02133C"/>
<path d="M31.5 11.2256C20.3205 11.2256 11.2256 20.3205 11.2256 31.5C11.2256 42.6794 20.3205 51.7743 31.5 51.7743C42.6795 51.7743 51.7744 42.6794 51.7744 31.5C51.7744 20.3205 42.6795 11.2256 31.5 11.2256ZM44.7741 18.7305L41.0255 23.6937L37.9671 24.6872C37.5384 24.8266 37.0827 24.7545 36.7175 24.4892C36.3526 24.2238 36.1431 23.8129 36.1431 23.3616V20.8751L40.332 15.3294C41.982 16.2345 43.4793 17.3847 44.7741 18.7305ZM46.0123 20.1542C46.4045 20.6545 46.7708 21.1765 47.1101 21.7168L44.0907 22.6978L46.0123 20.1542ZM36.1431 13.6639C37.0001 13.8874 37.8335 14.171 38.6377 14.5099L36.1431 17.8129V13.6639ZM34.2974 13.2833V23.3616C34.2974 24.4108 34.7843 25.3659 35.6326 25.9826C36.1974 26.393 36.9381 26.804 38.5377 26.4425L48.0296 23.3587C48.8477 25.0126 49.4259 26.8059 49.7152 28.6934L40.2666 31.7634C39.2692 32.0878 38.5112 32.8458 38.1868 33.8431C37.8628 34.841 38.0306 35.8998 38.6473 36.7482L44.3915 44.6549C42.0128 46.987 39.0073 48.6813 35.6533 49.4566L35.7288 45.3898L36.5074 46.4617C36.8069 46.8741 37.3841 46.9654 37.7965 46.666C38.2089 46.366 38.3002 45.7892 38.0003 45.3769L34.121 40.0368C33.5043 39.188 32.5492 38.7016 31.5005 38.7016C30.4512 38.7016 29.4961 39.188 28.8795 40.0368L23.1486 47.9248C21.4707 47.0683 19.9417 45.9618 18.6089 44.6549L24.3536 36.7482C24.9698 35.8998 25.1376 34.841 24.8136 33.8431C24.4892 32.8453 23.7312 32.0873 22.7338 31.7634L13.2852 28.6934C13.5745 26.8059 14.1528 25.0126 14.9708 23.3587L23.1881 26.0287C23.8177 26.1777 24.2243 25.8259 24.3508 25.4361C24.5084 24.9516 24.2431 24.4305 23.7586 24.2734L22.2715 23.7903L18.5248 18.4267C19.8499 17.1112 21.3731 15.9956 23.0453 15.1285L26.8569 20.5848V23.3616C26.8569 23.7792 26.6819 24.157 26.3637 24.4257C25.9744 24.754 25.9249 25.3366 26.2537 25.7259C26.4363 25.9422 27.1039 26.232 27.5543 25.836C28.2714 25.2053 28.7026 24.3185 28.7026 23.3616V13.2833C29.6149 13.1439 30.5492 13.0713 31.5 13.0713C32.4507 13.0713 33.3851 13.1439 34.2974 13.2833ZM49.8349 33.362L45.709 31.9359L49.9051 30.5723C49.9205 30.8799 49.8969 32.7492 49.8349 33.362ZM44.1882 41.2351L46.5905 42.0652C46.2988 42.48 45.9912 42.8827 45.6677 43.2716L44.1882 41.2351ZM42.294 38.628L40.1402 35.6634C39.8749 35.2985 39.8028 34.8429 39.9421 34.4137C40.0815 33.9844 40.4079 33.6581 40.8366 33.5187L42.7963 32.8823L49.5518 35.2168C49.1683 37.0827 48.5006 38.8458 47.598 40.4607L42.294 38.628ZM26.419 46.5626L26.37 49.2014C25.861 49.0534 25.3606 48.8842 24.8703 48.6943L26.419 46.5626ZM13.0948 30.5723L16.2878 31.61L13.104 32.5795C13.0828 32.2219 13.0795 30.8794 13.0948 30.5723ZM19.3529 32.6059L22.1628 33.5187C22.592 33.6581 22.9184 33.9844 23.0578 34.4137C23.1972 34.8429 23.1251 35.2985 22.8598 35.6634L21.2525 37.8758L15.0343 39.7691C14.2027 38.1209 13.612 36.331 13.3078 34.4468L19.3529 32.6059ZM19.4524 40.3531L17.3323 43.2716C16.8415 42.6818 16.3863 42.0618 15.9711 41.4134L19.4524 40.3531ZM19.3592 22.8439L15.8898 21.7163C16.3042 21.0573 16.7589 20.4257 17.251 19.8264L19.3592 22.8439ZM26.8569 17.3616L24.7531 14.3503C25.4356 14.0807 26.1378 13.8514 26.8569 13.6644V17.3616ZM28.208 49.6335L28.3137 43.9556L30.3724 41.1216C30.6377 40.7568 31.0486 40.5473 31.5 40.5473C31.9513 40.5473 32.3623 40.7568 32.6276 41.1216L33.9287 42.9125L33.8009 49.7854C33.0467 49.8796 32.2791 49.9286 31.5 49.9286C30.3767 49.9286 29.2765 49.8272 28.208 49.6335Z" fill="#02133C"/>
<path d="M27.1042 31.5C27.1042 33.924 29.0764 35.8961 31.5003 35.8961C33.9242 35.8961 35.8963 33.924 35.8963 31.5C35.8963 29.0761 33.9242 27.104 31.5003 27.104C29.0764 27.104 27.1042 29.0761 27.1042 31.5ZM34.0506 31.5C34.0506 32.9064 32.9067 34.0504 31.5003 34.0504C30.0939 34.0504 28.9499 32.9064 28.9499 31.5C28.9499 30.0937 30.0939 28.9497 31.5003 28.9497C32.9067 28.9497 34.0506 30.0937 34.0506 31.5Z" fill="black"/>
</g>
<defs>
<clipPath id="clip0">
<rect width="63" height="63" fill="white"/>
</clipPath>
</defs>
</svg>
