<svg width="76" height="76" viewBox="0 0 76 76" fill="none" xmlns="http://www.w3.org/2000/svg">
<path d="M45.1428 43.1382L45.5561 40.7988L50.2349 41.6253L49.8216 43.9647L45.1428 43.1382Z" fill="white"/>
<path d="M61.891 61.6625L63.1082 61.2196L62.2959 58.9883L61.0835 59.43C60.8621 59.0405 60.6045 58.6727 60.314 58.3316L61.1452 57.3424L59.3236 55.8129L58.4924 56.8056C58.1071 56.5789 57.7011 56.3892 57.2799 56.2392L57.5044 54.9638L55.1662 54.5518L54.9417 55.8248C54.4937 55.8225 54.0464 55.8623 53.6058 55.9435L53.1652 54.7311L50.9339 55.5421L51.3733 56.7534C51.1793 56.8626 50.9897 56.9814 50.8045 57.1096C50.6204 57.2391 50.4684 57.3994 50.2986 57.5431L49.2881 56.694L47.7609 58.5121L48.7596 59.3516C48.533 59.7364 48.3437 60.142 48.1944 60.5629L46.9059 60.3337L46.4927 62.6731L47.7692 62.8975C47.7667 63.3448 47.8065 63.7913 47.888 64.2311L46.672 64.674L47.4831 66.9053L48.6955 66.4636C48.9176 66.853 49.1752 67.2211 49.465 67.5632L48.6337 68.5512L50.4518 70.0783L51.2831 69.0856C51.6684 69.3123 52.0743 69.502 52.4955 69.652L52.2711 70.9274L54.6092 71.3383L54.8408 70.0629C54.8622 70.0629 54.8835 70.0688 54.9049 70.0688C55.3314 70.0647 55.7567 70.0222 56.1755 69.9418L56.6185 71.1589L58.8498 70.3479L58.4033 69.12C58.5957 69.0096 58.7928 68.9074 58.978 68.778C59.1633 68.6486 59.3141 68.4894 59.4839 68.3458L60.4957 69.1948L62.0216 67.3756L61.0229 66.536C61.2487 66.1522 61.4376 65.7478 61.587 65.3283L62.8707 65.5551L63.2839 63.2158L62.0085 62.9913C62.0118 62.5456 61.9724 62.1007 61.891 61.6625ZM54.8847 58.195C55.1634 58.1956 55.4415 58.2202 55.716 58.2686C56.9134 58.4826 57.9821 59.1503 58.6994 60.1326C59.4167 61.115 59.7274 62.3363 59.5666 63.542C59.4058 64.7477 58.786 65.8448 57.8363 66.6049C56.8866 67.365 55.6803 67.7293 54.4687 67.622C53.257 67.5146 52.1335 66.944 51.3322 66.0288C50.5309 65.1137 50.1136 63.9247 50.1672 62.7095C50.2209 61.4943 50.7413 60.3466 51.6201 59.5056C52.4989 58.6646 53.6684 58.1952 54.8847 58.195Z" fill="white"/>
<path d="M53.5381 63.9087L53.9513 61.5693L56.2907 61.9826L55.8774 64.3219L53.5381 63.9087Z" fill="white"/>
<path d="M71.6063 43.0435C70.9826 42.1472 70.1872 41.3835 69.2663 40.7966C68.3453 40.2098 67.3171 39.8115 66.2412 39.6247L62.1883 38.9122L54.8626 22.216C54.4706 21.3205 53.8632 20.5358 53.0945 19.9318C52.3259 19.3279 51.4198 18.9234 50.457 18.7544L20.2137 13.419C18.6634 13.1479 17.0688 13.5025 15.7795 14.4052C14.4902 15.3078 13.6114 16.6848 13.3357 18.2343L8.18195 47.4753C8.1006 47.936 8.1108 48.4083 8.21197 48.8651C8.31314 49.3219 8.5033 49.7543 8.77159 50.1376C9.03988 50.5209 9.38105 50.8476 9.77561 51.099C10.1702 51.3505 10.6104 51.5217 11.0711 51.603L12.0532 51.7752C12.2806 51.8151 12.5148 51.7878 12.727 51.6967C12.9391 51.6056 13.1201 51.4546 13.2478 51.2622C14.397 49.53 16.0266 48.1708 17.9369 47.3512C19.8473 46.5317 21.9552 46.2874 24.0024 46.6483C26.0495 47.0092 27.9468 47.9597 29.4617 49.3832C30.9765 50.8067 32.043 52.6413 32.5305 54.662C32.5848 54.8869 32.7037 55.091 32.8725 55.2492C33.0413 55.4074 33.2526 55.5129 33.4805 55.5527L37.6925 56.296L34.5373 63.6585C34.474 63.8064 34.4413 63.9656 34.4413 64.1264C34.4413 64.2873 34.474 64.4464 34.5373 64.5943L37.3873 71.2502H32.0626V73.6252H46.3126V71.2502H40.9878L43.8378 64.5931C43.9012 64.4453 43.9339 64.2861 43.9339 64.1252C43.9339 63.9644 43.9012 63.8052 43.8378 63.6573L40.9273 56.8672L44.795 57.5488C45.0225 57.5902 45.2571 57.5635 45.4695 57.4723C45.682 57.3811 45.8629 57.2293 45.9896 57.0358C47.1385 55.3035 48.7681 53.9442 50.6783 53.1245C52.5886 52.3049 54.6966 52.0606 56.7437 52.4215C58.7908 52.7825 60.688 53.733 62.2028 55.1566C63.7175 56.5802 64.7839 58.4149 65.271 60.4357C65.3252 60.6607 65.444 60.8651 65.6128 61.0235C65.7816 61.1819 65.993 61.2876 66.221 61.3275L67.2031 61.5008C67.4078 61.5362 67.6152 61.554 67.823 61.5543C68.6602 61.5539 69.4706 61.2586 70.1118 60.7203C70.7531 60.182 71.1842 59.435 71.3297 58.6105L72.9791 49.2553C73.1725 48.1806 73.1508 47.0782 72.9152 46.0119C72.6796 44.9456 72.2347 43.9367 71.6063 43.0435ZM37.4253 62.9377L39.1876 58.8278L40.9498 62.9377H37.4253ZM40.9498 65.3127L39.1876 69.4227L37.4253 65.3127H40.9498ZM52.6859 23.1707L59.3751 38.4147L44.0183 35.7072L46.6985 20.5072L50.0437 21.1009C50.6206 21.2014 51.1637 21.4429 51.6247 21.804C52.0857 22.1651 52.4502 22.6346 52.6859 23.1707ZM15.6751 18.6511C15.7562 18.1902 15.9274 17.7499 16.1788 17.3552C16.4302 16.9605 16.7569 16.6192 17.1402 16.3508C17.5235 16.0824 17.9559 15.8921 18.4128 15.7909C18.8697 15.6896 19.342 15.6794 19.8028 15.7607L44.3627 20.0915L41.6813 35.2951L13.6124 30.3456L15.6751 18.6511ZM12.375 37.3625L13.5447 37.5692L13.1338 39.9073L11.963 39.7007L12.375 37.3625ZM11.7243 49.3064L11.4868 49.2637C11.1776 49.2072 10.9031 49.0312 10.7226 48.7739C10.5421 48.5165 10.4703 48.1985 10.5225 47.8885L10.7291 46.7188L13.7133 47.2437C12.9762 47.8557 12.3091 48.5475 11.7243 49.3064ZM24.4151 44.3082C22.6616 44.0005 20.8638 44.0546 19.132 44.4673C17.4003 44.8801 15.7712 45.6426 14.3451 46.7082L14.6467 44.9982L11.1376 44.3795L11.5509 42.0401L12.7194 42.2467C12.8575 42.2703 12.9973 42.2822 13.1374 42.2823C13.6951 42.2813 14.2346 42.0841 14.6615 41.7252C15.0883 41.3663 15.3753 40.8686 15.472 40.3194L15.8829 37.9824C15.9373 37.6753 15.9306 37.3604 15.8633 37.0559C15.7959 36.7513 15.6693 36.463 15.4905 36.2074C15.3118 35.9518 15.0845 35.7339 14.8215 35.5662C14.5585 35.3984 14.2651 35.2841 13.958 35.2298L12.7871 35.0232L13.2003 32.685L41.2681 37.6345L38.3813 54.0065L34.63 53.3439C33.9249 51.043 32.5978 48.9816 30.7953 47.3872C28.9928 45.7927 26.7848 44.7272 24.4151 44.3082ZM57.1604 50.0818C54.7899 49.6637 52.3498 49.9092 50.1101 50.7913C47.8704 51.6734 45.9183 53.1577 44.4696 55.08L40.7195 54.4186L43.6063 38.0465L65.8268 41.9653C66.5952 42.0987 67.3296 42.3831 67.9873 42.8022C68.6451 43.2213 69.2132 43.7667 69.6588 44.4068C69.8097 44.6367 69.9446 44.8768 70.0626 45.1252L66.582 44.5113C65.9628 44.4021 65.3255 44.5429 64.81 44.9029C64.2944 45.2628 63.9426 45.8125 63.8318 46.4315L63.4185 48.7697C63.3091 49.3899 63.4506 50.0283 63.8118 50.5443C64.173 51.0603 64.7244 51.4116 65.3447 51.5211L70.0234 52.3523L69.6113 54.6905L66.1035 54.0718L65.8018 55.7818C64.8267 54.2923 63.5569 53.0182 62.0707 52.0379C60.5846 51.0577 58.9135 50.392 57.1604 50.0818ZM70.6421 48.8421L70.4366 50.0118L65.7579 49.1805L66.1711 46.8423L70.73 47.6463C70.7406 48.0468 70.7111 48.4474 70.6421 48.8421ZM67.6163 59.1615L67.3788 59.1187C67.0905 58.2076 66.7018 57.3314 66.2198 56.5062L69.204 57.0323L68.9986 58.2008C68.9712 58.3548 68.9138 58.5019 68.8294 58.6336C68.7451 58.7653 68.6355 58.8791 68.5071 58.9683C68.3786 59.0576 68.2338 59.1206 68.081 59.1538C67.9281 59.1869 67.7702 59.1895 67.6163 59.1615Z" fill="white"/>
<path d="M20.1875 61.7505H5.9375C4.99267 61.7505 4.08653 62.1258 3.41843 62.7939C2.75033 63.462 2.375 64.3682 2.375 65.313V70.063C2.375 71.0078 2.75033 71.914 3.41843 72.5821C4.08653 73.2502 4.99267 73.6255 5.9375 73.6255H20.1875C21.1323 73.6255 22.0385 73.2502 22.7066 72.5821C23.3747 71.914 23.75 71.0078 23.75 70.063V65.313C23.75 64.3682 23.3747 63.462 22.7066 62.7939C22.0385 62.1258 21.1323 61.7505 20.1875 61.7505ZM17.7412 67.8257L16.8863 71.2505H14.5825L15.4019 67.9766C15.471 67.7016 15.4394 67.4109 15.3128 67.1572L13.7964 64.1255H15.8911L17.7412 67.8257ZM10.5687 67.1572L9.04638 64.1255H11.1411L12.9912 67.8257L12.1363 71.2505H9.8325L10.6519 67.9766C10.7228 67.7023 10.6933 67.4116 10.5687 67.1572ZM4.75 70.063V65.313C4.75 64.998 4.87511 64.696 5.09781 64.4733C5.32051 64.2506 5.62256 64.1255 5.9375 64.1255H6.39112L8.24125 67.8257L7.38625 71.2505H5.9375C5.62256 71.2505 5.32051 71.1254 5.09781 70.9027C4.87511 70.68 4.75 70.3779 4.75 70.063ZM21.375 70.063C21.375 70.3779 21.2499 70.68 21.0272 70.9027C20.8045 71.1254 20.5024 71.2505 20.1875 71.2505H19.3325L20.1519 67.9766C20.221 67.7016 20.1894 67.4109 20.0628 67.1572L18.5464 64.1255H20.1875C20.5024 64.1255 20.8045 64.2506 21.0272 64.4733C21.2499 64.696 21.375 64.998 21.375 65.313V70.063Z" fill="white"/>
<path d="M10.6875 54.6255H13.0625V59.3755H10.6875V54.6255Z" fill="white"/>
<path d="M15.4709 59.1152L16.6607 54.3661L18.9633 54.9429L17.7735 59.6921L15.4709 59.1152Z" fill="white"/>
<path d="M4.8103 54.9023L7.1129 54.3255L8.30264 59.0747L6.00005 59.6515L4.8103 54.9023Z" fill="white"/>
</svg>
