<svg width="76" height="76" viewBox="0 0 76 76" fill="none" xmlns="http://www.w3.org/2000/svg">
<path d="M64.9676 31.871H41.6773V29.4194H43.5968L49.6672 19.3017C50.8547 17.3217 51.4838 15.0538 51.4838 12.7447C51.4838 5.71724 45.7665 0 38.7391 0H37.2619C30.2333 0 24.516 5.71724 24.516 12.7447C24.516 15.0538 25.1451 17.3217 26.3314 19.3029L32.403 29.4194H34.3225V31.871H11.0322C9.00491 31.871 7.35474 33.5211 7.35474 35.5484V72.3226C7.35474 74.3498 9.00491 76 11.0322 76H64.9676C66.9949 76 68.6451 74.3498 68.6451 72.3226V35.5484C68.6451 33.5211 66.9949 31.871 64.9676 31.871ZM44.1289 73.5484H39.2257V61.2903H46.5805V53.9355H51.4838V44.129H41.6773V39.2258H61.2902V51.4839H56.387V58.8387H51.4838V66.1936H44.1289V73.5484ZM49.0322 12.7447C49.0322 13.5671 48.9166 14.3787 48.7245 15.1706C44.5252 13.5437 41.6773 9.47905 41.6773 4.90323V2.88436C45.9245 4.15326 49.0322 8.09044 49.0322 12.7447ZM34.3225 2.88436V4.90323C34.3225 9.47905 31.4746 13.5437 27.2753 15.1706C27.0832 14.3787 26.9676 13.5671 26.9676 12.7447C26.9676 8.09044 30.0753 4.15326 34.3225 2.88436ZM28.4335 18.0411C28.3221 17.855 28.2389 17.6563 28.1396 17.4653C33.2852 15.4794 36.7741 10.5049 36.7741 4.90323V2.47615C36.9369 2.46897 37.0967 2.45161 37.2607 2.45161H38.7379C38.9031 2.45161 39.0629 2.46897 39.2257 2.47615V4.90323C39.2257 10.5049 42.7146 15.4794 47.8602 17.4642C47.7609 17.6551 47.6777 17.8538 47.5663 18.0399L42.2094 26.9677H33.7916L28.4335 18.0411ZM39.2257 29.4194V44.129H36.7741V29.4194H39.2257ZM34.3225 44.129H29.4193V39.2258H34.3225V44.129ZM9.80635 72.3226V35.5484C9.80635 34.8732 10.3558 34.3226 11.0322 34.3226H34.3225V36.7742H26.9676V46.5806H49.0322V51.4839H44.1289V58.8387H36.7741V73.5484H11.0322C10.3558 73.5484 9.80635 72.9989 9.80635 72.3226ZM66.1934 72.3226C66.1934 72.9989 65.644 73.5484 64.9676 73.5484H46.5805V68.6452H53.9354V61.2903H58.8386V53.9355H63.7418V36.7742H41.6773V34.3226H64.9676C65.644 34.3226 66.1934 34.8732 66.1934 35.5484V72.3226Z" fill="white"/>
<path d="M12.2578 46.5809H24.5159V36.7744H12.2578V46.5809ZM14.7094 39.226H22.0643V44.1293H14.7094V39.226Z" fill="white"/>
<path d="M12.2578 71.0967H22.0643V49.0322H12.2578V71.0967ZM14.7094 68.6451V66.1935H19.6127V68.6451H14.7094ZM19.6127 61.2903V63.7419H14.7094V61.2903H19.6127ZM14.7094 58.8387V56.3871H19.6127V58.8387H14.7094ZM19.6127 51.4838V53.9355H14.7094V51.4838H19.6127Z" fill="white"/>
</svg>
