<svg width="76" height="76" viewBox="0 0 76 76" fill="none" xmlns="http://www.w3.org/2000/svg">
<g clip-path="url(#clip0)">
<path d="M17.167 56.3892H19.6184V58.8405H17.167V56.3892Z" fill="white"/>
<path d="M71.0001 9.19026L48.7378 0.280677C46.5737 -0.522485 44.3025 0.560167 43.5095 2.55431L41.954 6.43366C41.7727 6.92142 41.6805 7.41397 41.6805 7.90053C41.6805 8.70848 41.9331 9.49189 42.3766 10.1538L38.7929 18.3925H37.2093L33.628 10.1574C34.0738 9.49429 34.3264 8.70968 34.3264 7.90053C34.3264 7.41517 34.2342 6.92142 34.0421 6.40194L32.4992 2.5567C31.7033 0.556576 29.5338 -0.566174 27.2398 0.290252L5.00922 9.18906C3.45975 9.8043 2.4585 11.2814 2.4585 12.9505C2.4585 13.4359 2.55066 13.9296 2.74277 14.4497L4.28626 18.2944C4.86798 19.7582 6.21995 20.72 7.7742 20.8241L18.9748 46.5833H15.9411C13.914 46.5833 12.264 48.2334 12.264 50.2604C12.264 51.2545 12.6524 52.1785 13.3353 52.8441C13.5633 53.0787 13.8242 53.2624 14.0989 53.424C12.9912 54.5677 12.3011 56.1207 12.3011 57.8354C12.3011 58.3106 12.3514 58.763 12.4525 59.2155L16.1841 75.9999H54.9046L60.2251 53.825C65.0165 53.1702 68.6457 49.0838 68.6457 44.132C68.6457 39.9318 65.9651 36.2548 62.1163 34.898L68.2327 20.8241C69.787 20.72 71.1402 19.7582 71.7213 18.2979L73.2761 14.4192C73.4563 13.9296 73.5484 13.4371 73.5484 12.9505C73.5484 11.2814 72.5472 9.8043 71.0001 9.19026ZM42.367 16.3259L46.1075 17.9035L47.0603 15.6449L43.3449 14.0769L44.3725 11.7176L65.7909 20.2897L64.5988 23.0343L49.3375 16.6114L48.3877 18.8719L63.6214 25.2822L62.4179 28.0508L47.7916 21.8978C47.7001 19.9515 46.1003 18.3925 44.1319 18.3925H41.4675L42.367 16.3259ZM29.447 48.6044C30.8175 46.5714 33.0995 45.3577 35.5521 45.3577C38.0047 45.3577 40.2873 46.5714 41.6572 48.6044C42.4747 49.8145 42.9062 51.2347 42.9062 52.7118C42.9062 54.1888 42.4747 55.6096 41.6572 56.8192C40.2873 58.8528 38.0047 60.0659 35.5521 60.0659C31.4962 60.0659 28.198 56.7677 28.198 52.7118C28.198 51.2347 28.6295 49.8145 29.447 48.6044ZM31.875 42.9063C30.4399 42.9063 29.1699 42.1013 28.5559 40.7942C28.5032 40.6853 28.4786 40.568 28.4368 40.4549H42.6782C42.1743 41.8853 40.8277 42.9063 39.2304 42.9063H31.875ZM18.8754 40.2071L23.5944 38.2256C24.0098 39.1915 24.8345 39.9306 25.8435 40.2592C25.8669 40.3927 25.889 40.5273 25.9207 40.6584L20.1328 43.099L18.8754 40.2071ZM44.1319 20.8439C44.8076 20.8439 45.3576 21.3945 45.3576 22.0696V28.198H34.3264C32.2994 28.198 30.6493 29.848 30.6493 31.8751C30.6493 32.8692 31.0378 33.7932 31.7206 34.4587C32.4083 35.1637 33.3323 35.5521 34.3264 35.5521H45.3576V36.7778C45.3576 37.4535 44.8076 38.0035 44.1319 38.0035H26.9723C26.2972 38.0035 25.7466 37.4535 25.7466 36.7778V30.5758C25.7466 30.0024 25.8777 29.4411 26.1314 28.9419L29.1579 22.8775C29.7803 21.6417 31.0737 20.8439 32.4514 20.8439H44.1319ZM49.3549 46.5833H43.1905C42.6884 45.9573 42.118 45.4031 41.4908 44.925C43.1708 44.263 44.4653 42.8817 45.0243 41.188L49.1167 42.9099C49.064 43.3132 49.0347 43.719 49.0347 44.132C49.0347 44.9704 49.1502 45.788 49.3549 46.5833ZM45.3576 33.1008H34.3264C33.999 33.1008 33.6974 32.9757 33.4538 32.7261C33.2258 32.5041 33.1007 32.2024 33.1007 31.8751C33.1007 31.2 33.6513 30.6494 34.3264 30.6494H45.3576V33.1008ZM23.9434 27.8389C23.6214 28.4727 23.4155 29.1723 23.3359 29.8923L15.7717 33.069L14.5682 30.3005L24.8824 25.9573L23.9434 27.8389ZM23.2952 32.5675V35.6946L17.8987 37.961L16.749 35.3169L23.2952 32.5675ZM44.6197 49.0347H50.3669C50.9295 50.0019 51.6452 50.8637 52.4939 51.5807L50.644 56.3889H44.6197C45.0907 55.2284 45.3576 53.9901 45.3576 52.7118C45.3576 51.4334 45.0907 50.1958 44.6197 49.0347ZM49.7481 40.5165L46.8101 39.2807C47.4254 38.6224 47.809 37.7462 47.809 36.7778V36.2841L51.3891 37.7941C50.6978 38.6056 50.1413 39.5225 49.7481 40.5165ZM53.4323 35.995L47.809 33.6232V30.4974L57.2213 34.4587C55.8544 34.6831 54.582 35.2224 53.4323 35.995ZM60.2376 33.069L47.809 27.8377V24.5652L61.4412 30.3017L60.2376 33.069ZM32.4514 18.3925C30.1556 18.3925 28.0029 19.7199 26.9651 21.7829L26.5629 22.5896L13.5902 28.0508L12.3867 25.2834L33.6411 16.3259L34.5407 18.3925H32.4514ZM6.56228 17.3841L5.03017 13.5658C4.95177 13.3551 4.90987 13.142 4.90987 12.9505C4.90987 12.291 5.30487 11.7087 5.91772 11.4651L28.122 2.57884C29.061 2.23053 29.909 2.6758 30.2226 3.46759L31.7547 7.2853C31.8331 7.49596 31.875 7.70962 31.875 7.90053C31.875 8.3458 31.6961 8.75995 31.3627 9.07116C31.2281 9.19984 31.0503 9.31295 30.8702 9.38596L27.7323 10.6362L28.639 12.9128L31.6374 11.7188L32.6692 14.0918L11.4088 23.0367L10.216 20.2927L26.2014 13.8931L25.2905 11.6183L8.64798 18.2788C8.55163 18.3165 8.44749 18.3446 8.40081 18.356C7.62877 18.4625 6.84895 18.1058 6.56228 17.3841ZM21.1102 45.3481L26.9699 42.8769C27.6515 43.8046 28.5654 44.506 29.6188 44.9202C28.9898 45.3995 28.4176 45.9549 27.9137 46.5833H21.647L21.1102 45.3481ZM52.9703 73.5485H18.1501L14.8441 58.681C14.7818 58.4039 14.7507 58.1268 14.7507 57.8354C14.7507 55.6868 16.5001 53.9375 18.6486 53.9375C20.2298 53.9375 21.6416 54.8777 22.2485 56.3338L27.3804 68.6457H34.552C35.0595 70.0689 36.4079 71.0971 38.0035 71.0971C40.0305 71.0971 41.6805 69.4477 41.6805 67.4201C41.6805 67.268 41.6536 67.1226 41.6351 66.9754L45.9058 64.84L44.8088 62.6472L40.5482 64.7778C39.8875 64.1404 38.9928 63.743 38.0035 63.743C36.4079 63.743 35.0595 64.7712 34.552 66.1944H29.0143L24.5125 55.39C23.5244 53.0182 21.2239 51.4861 18.6498 51.4861H15.9411C15.6137 51.4861 15.3121 51.361 15.0685 51.1115C14.8405 50.8894 14.7154 50.5878 14.7154 50.2604C14.7154 49.5853 15.266 49.0347 15.9411 49.0347H26.4845C26.0141 50.1958 25.7466 51.4334 25.7466 52.7118C25.7466 58.1185 30.1454 62.5173 35.5521 62.5173C38.5451 62.5173 41.3376 61.1498 43.1905 58.8402H52.3281L58.2178 43.5239C58.3632 43.1493 58.7139 42.9063 59.1101 42.9063C59.6368 42.9063 60.0659 43.3354 60.0659 43.8746C60.0659 43.9189 60.0611 43.9949 60.0389 44.0907L52.9703 73.5485ZM36.7778 67.4201C36.7778 66.745 37.3284 66.1944 38.0035 66.1944C38.6792 66.1944 39.2292 66.745 39.2292 67.4201C39.2292 68.0957 38.6792 68.6457 38.0035 68.6457C37.3284 68.6457 36.7778 68.0957 36.7778 67.4201ZM66.1943 44.132C66.1943 47.5014 63.9524 50.3316 60.8553 51.1934L62.4251 44.6502C62.4867 44.3833 62.5172 44.1224 62.5172 43.8626C62.5172 41.9834 60.9887 40.4549 59.1101 40.4549C57.6977 40.4549 56.4516 41.3095 55.9304 42.6382L53.4437 49.1071C52.941 48.5667 52.5106 47.9587 52.1899 47.286C51.7225 46.2967 51.486 45.235 51.486 44.132C51.486 43.5508 51.5549 42.9883 51.6979 42.4042C52.0803 40.793 53.0062 39.3519 54.3175 38.3405C55.6108 37.3183 57.1746 36.7778 58.8402 36.7778C59.3393 36.7778 59.79 36.8221 60.24 36.9155C63.6903 37.5768 66.1943 40.6129 66.1943 44.132ZM70.9893 13.5364L69.4435 17.3888C69.2011 17.9981 68.6188 18.3925 67.9592 18.3925C67.8443 18.3925 67.7204 18.3716 67.6714 18.3668C67.5601 18.3446 67.4553 18.3153 67.3733 18.2848L45.1457 9.38896C44.9578 9.31295 44.7801 9.19984 44.6442 9.07116L44.6382 9.06518C44.3109 8.75995 44.1319 8.3458 44.1319 7.90053C44.1319 7.70962 44.1738 7.49596 44.2396 7.31462L45.7855 3.4628C46.0279 2.85355 46.6102 2.45855 47.2698 2.45855C47.4607 2.45855 47.6743 2.50044 47.8569 2.56627L70.0934 11.4663C70.7027 11.7087 71.0971 12.291 71.0971 12.9505C71.0971 13.142 71.0552 13.3551 70.9893 13.5364Z" fill="white"/>
<path d="M38.0036 52.7118C38.0036 53.0697 37.9228 53.4145 37.7546 53.7676L39.9696 54.8191C40.2922 54.1398 40.455 53.4312 40.455 52.7118C40.455 50.0079 38.2561 47.8091 35.5522 47.8091C34.8328 47.8091 34.1242 47.9725 33.4456 48.2944L34.4971 50.5094C36.1836 49.7063 38.0036 51.002 38.0036 52.7118Z" fill="white"/>
<path d="M35.5519 57.6144C36.2713 57.6144 36.9799 57.4516 37.6592 57.129L36.607 54.914C34.9205 55.716 33.1005 54.4203 33.1005 52.7116C33.1005 52.3537 33.1813 52.0096 33.3495 51.6565L31.1345 50.605C30.812 51.2837 30.6492 51.9923 30.6492 52.7116C30.6492 55.4156 32.848 57.6144 35.5519 57.6144Z" fill="white"/>
<path d="M40.4546 23.2954H42.906V25.7468H40.4546V23.2954Z" fill="white"/>
<path d="M35.5522 23.2954H38.0036V25.7468H35.5522V23.2954Z" fill="white"/>
<path d="M30.6492 23.2954H33.1006V25.7468H30.6492V23.2954Z" fill="white"/>
</g>
<defs>
<clipPath id="clip0">
<rect width="76" height="76" fill="white"/>
</clipPath>
</defs>
</svg>
