<svg width="18" height="18" viewBox="0 0 18 18" fill="none" xmlns="http://www.w3.org/2000/svg">
<path d="M13.0325 0H4.96724C2.22831 0 0 2.22841 0 4.96735V13.0327C0 15.7717 2.22831 18 4.96724 18H13.0325C15.7717 18 18 15.7716 18 13.0327V4.96735C18.0001 2.22841 15.7717 0 13.0325 0ZM16.4031 13.0327C16.4031 14.8911 14.8911 16.403 13.0327 16.403H4.96724C3.10892 16.4031 1.59705 14.8911 1.59705 13.0327V4.96735C1.59705 3.10903 3.10892 1.59705 4.96724 1.59705H13.0325C14.891 1.59705 16.403 3.10903 16.403 4.96735L16.4031 13.0327Z" fill="#C40B0B"/>
<path d="M8.99996 4.36206C6.44245 4.36206 4.36182 6.44269 4.36182 9.00021C4.36182 11.5576 6.44245 13.6381 8.99996 13.6381C11.5575 13.6381 13.6381 11.5576 13.6381 9.00021C13.6381 6.44269 11.5575 4.36206 8.99996 4.36206ZM8.99996 12.041C7.32317 12.041 5.95886 10.6769 5.95886 9.0001C5.95886 7.3232 7.32306 5.959 8.99996 5.959C10.6769 5.959 12.0411 7.3232 12.0411 9.0001C12.0411 10.6769 10.6768 12.041 8.99996 12.041Z" fill="#C40B0B"/>
<path d="M13.8327 3.00781C13.525 3.00781 13.2227 3.13238 13.0054 3.35065C12.787 3.56784 12.6615 3.87022 12.6615 4.17898C12.6615 4.48678 12.7871 4.78905 13.0054 5.00732C13.2226 5.22451 13.525 5.35015 13.8327 5.35015C14.1414 5.35015 14.4427 5.22451 14.661 5.00732C14.8793 4.78905 15.0038 4.48668 15.0038 4.17898C15.0038 3.87022 14.8793 3.56784 14.661 3.35065C14.4438 3.13238 14.1414 3.00781 13.8327 3.00781Z" fill="#C40B0B"/>
</svg>
