<svg width="63" height="63" viewBox="0 0 63 63" fill="none" xmlns="http://www.w3.org/2000/svg">
<g clip-path="url(#clip0)">
<path d="M49.213 29.4318C49.213 29.3198 49.2188 12.7959 49.2188 12.7959L24.6094 0.492188L1.35613e-05 12.7969V29.0963C-0.00959948 39.3034 5.09204 48.8376 13.5895 54.493L24.6094 61.8363L33.0987 56.1815C37.687 62.0589 45.6129 64.1877 52.5285 61.4004C59.4446 58.6131 63.6792 51.5836 62.9101 44.1671C62.1406 36.7502 56.5535 30.7396 49.213 29.4308V29.4318ZM24.6094 59.4739L14.682 52.8568C6.73154 47.5663 1.95867 38.6459 1.96876 29.0963V14.0134L24.6094 2.69309L47.25 14.0134V29.2054C46.9232 29.1857 46.5992 29.1554 46.2656 29.1554C45.9321 29.1554 45.6071 29.1857 45.2813 29.2054C45.2813 29.1688 45.2813 15.2275 45.2813 15.2275L24.6094 4.89256L3.93751 15.2285V29.0963C3.9303 37.9869 8.37393 46.2906 15.7745 51.2168L24.6094 57.1034L31.0492 52.8126C31.3246 53.4134 31.6356 53.9974 31.9802 54.5612L24.6094 59.4739ZM30.3128 50.9385L24.6094 54.7381L16.8675 49.5792C16.4854 49.324 16.1153 49.0563 15.75 48.7818V39.9835H13.7813V47.1298C12.7008 46.1282 11.7125 45.0308 10.8281 43.8518V38.1316C10.8286 36.778 11.7491 35.598 13.0617 35.2683L19.7375 33.5947C19.9519 35.7293 21.525 37.4779 23.625 37.9162V41.9523H25.5938V37.9162C27.6937 37.4784 29.2664 35.7293 29.4803 33.5947L33.8624 34.6954C29.8672 39.089 28.5147 45.2779 30.3128 50.9376V50.9385ZM19.6875 21.2804H22.4085C23.9278 21.2785 25.4284 20.942 26.8036 20.296H27.0703L29.5313 23.5769V27.6788L26.2503 30.1398H22.9684L19.6875 27.6788V21.2804ZM17.8005 19.3116C17.9999 18.0773 18.7858 17.0165 19.9091 16.4667C22.0864 15.4977 24.5397 15.3434 26.8213 16.0317L27.0477 16.3585H28.5469C29.0905 16.3585 29.5313 16.7993 29.5313 17.3429V20.296L28.0547 18.3273H26.346L26.1383 18.4306C24.9795 19.0079 23.7029 19.3097 22.4085 19.3116H17.8005ZM27.5625 31.6163V33.0929C27.5625 34.7237 26.2402 36.046 24.6094 36.046C22.9785 36.046 21.6563 34.7237 21.6563 33.0929V31.6163L22.3128 32.1085H26.9059L27.5625 31.6163ZM29.5313 31.5779V30.1398L31.5 28.6632V17.3429C31.5 15.7115 30.1777 14.3898 28.5469 14.3898H27.8922C26.4681 13.5241 22.9223 13.3491 20.4109 14.1345C17.5948 14.8262 15.6496 17.3977 15.75 20.296V21.2804H17.7188V28.6632L19.6875 30.1398V31.5731L12.5825 33.3596C10.3927 33.9061 8.85699 35.8749 8.85939 38.1316V40.7896C6.91948 37.1977 5.90434 33.1789 5.90626 29.0963V16.445L24.6094 7.09346L43.3125 16.445V29.0963C43.3125 29.2092 43.3058 29.3217 43.3048 29.4337C40.4339 29.947 37.7485 31.2049 35.5163 33.0818L29.5313 31.5779ZM46.2656 60.6554C38.1109 60.6554 31.5 54.0445 31.5 45.8898C31.5 37.7345 38.1109 31.1241 46.2656 31.1241C54.4204 31.1241 61.0313 37.7345 61.0313 45.8898C61.0221 54.0407 54.4165 60.6458 46.2656 60.6554Z" fill="#02133C"/>
<path d="M51.1875 17.3429H63V19.3116H51.1875V17.3429Z" fill="#E30B0B"/>
<path d="M51.1875 21.2804H59.0625V23.2491H51.1875V21.2804Z" fill="#E30B0B"/>
<path d="M51.1875 25.2179H55.125V27.1866H51.1875V25.2179Z" fill="#E30B0B"/>
<circle cx="45.9375" cy="45.9375" r="17.0625" fill="#C40B0B"/>
<path d="M43.8697 46.2242L40.2024 42.9053L36.75 46.0431L43.8697 52.5L55.125 39.8875L51.6726 36.75L43.8697 46.2242Z" fill="white"/>
</g>
<defs>
<clipPath id="clip0">
<rect width="63" height="63" fill="white"/>
</clipPath>
</defs>
</svg>
