<svg width="63" height="63" viewBox="0 0 63 63" fill="none" xmlns="http://www.w3.org/2000/svg">
<g clip-path="url(#clip0)">
<path d="M41.9832 16.3434C42.7131 14.1792 44.6223 12.5647 46.9483 12.2556L48.5121 8.59443L43.1313 3.2151L39.9594 5.2796C38.7542 4.60086 37.4796 4.07245 36.1559 3.70183L35.3724 0H27.6284L26.845 3.70183C25.5212 4.07245 24.2456 4.60086 23.0414 5.2796L19.8695 3.2151L14.4932 8.59145L16.0273 12.2461C18.3592 12.5572 20.2322 14.2521 20.9819 16.4392L21.3386 15.6587C23.1585 11.7019 27.1466 9.14516 31.4999 9.14516C35.8145 9.14516 39.7887 11.6691 41.6235 15.5773L41.9832 16.3434Z" fill="#C40B0B"/>
<path d="M39.8443 27.712L35.5635 26.6407V26.154C37.4573 24.8323 38.6128 22.6487 38.6128 20.3227V18.5464C38.6128 14.599 35.5198 11.2956 31.7183 11.1805C29.7703 11.1185 27.9395 11.8339 26.5473 13.1855C25.1541 14.537 24.387 16.3494 24.387 18.2904V20.3227C24.387 22.6487 25.5416 24.8313 27.4354 26.153V26.6407L23.1556 27.712C20.8896 28.2781 19.3064 30.3054 19.3064 32.6413V34.4359L22.1414 33.8058C22.9586 33.6237 23.7936 33.5324 24.6297 33.5324C25.8155 33.5324 26.9943 33.7164 28.1231 34.0772L32.7751 35.5646C33.2772 35.5646 33.7773 35.6346 34.2596 35.773L40.6451 37.5969H41.6612L43.6935 36.5267V32.6413C43.6935 30.3054 42.1103 28.2781 39.8443 27.712Z" fill="#C40B0B"/>
<path d="M63 26.4194H60.7167L57.3135 28.21C56.9305 27.9987 56.5321 27.8195 56.1024 27.7119L51.8216 26.6407V26.1539C53.7154 24.8322 54.871 22.6486 54.871 20.3226V18.5464C54.871 14.599 51.7779 11.2955 47.9764 11.1804C46.0314 11.1234 44.1976 11.8339 42.8054 13.1854C41.4122 14.5369 40.6452 16.3494 40.6452 18.2904V20.3226C40.6452 22.6486 41.7997 24.8312 43.6935 26.153V26.6407L39.629 27.6583L39.8444 27.7119C40.7856 27.9466 41.5983 28.4437 42.2383 29.1001L45.7258 28.2289V25.0108L45.2187 24.7176C43.6509 23.8111 42.6774 22.1261 42.6774 20.3226V18.2904C42.6774 16.9046 43.2252 15.6086 44.221 14.6436C45.2158 13.6791 46.5355 13.1591 47.9153 13.2127C50.6298 13.2941 52.8387 15.687 52.8387 18.5464V20.3226C52.8387 22.1261 51.8643 23.8111 50.2954 24.7196L49.7873 25.0133L49.7913 28.2289L54.868 29.4971L41.4102 36.5807H40.7876L34.5404 34.7955C34.0493 34.6561 33.5422 34.599 33.0331 34.5797L28.4333 33.1096C26.337 32.4378 24.0681 32.3376 21.9222 32.8129L16.138 34.0984L16.2204 33.8106L16.2581 31.9327L10.8991 28.8064L13.2097 28.2289V25.0108L12.7026 24.7176C11.1347 23.8111 10.1613 22.1261 10.1613 20.3226V18.2904C10.1613 16.9046 10.709 15.6086 11.7048 14.6436C12.6996 13.6791 14.0224 13.1591 15.3992 13.2127C18.1137 13.2941 20.3226 15.687 20.3226 18.5464V20.3226C20.3226 22.1261 19.3481 23.8111 17.7793 24.7196L17.2712 25.0133L17.2752 28.2289L20.7617 29.1001C21.4027 28.4437 22.2144 27.9466 23.1556 27.7119L23.371 27.6583L19.3055 26.6407V26.1539C21.1993 24.8322 22.3548 22.6486 22.3548 20.3226V18.5464C22.3548 14.599 19.2618 11.2955 15.4602 11.1804C13.5143 11.1234 11.6815 11.8339 10.2893 13.1854C8.89609 14.5369 8.12903 16.3494 8.12903 18.2904V20.3226C8.12903 22.6486 9.28359 24.8312 11.1774 26.153V26.6407L8.38505 27.3388L3.32375 24.3871H0V45.4425L9.99657 48.7742H11.9435L12.1866 47.9228L15.2509 49.7621C15.301 51.4282 16.6371 52.7688 18.3017 52.8273C18.3603 54.485 19.6925 55.8172 21.3501 55.8757C21.4087 57.5334 22.7408 58.8656 24.3985 58.9241C24.459 60.6205 25.8483 61.9839 27.5585 61.9839C28.1936 61.9839 28.8163 61.7859 29.3397 61.4332L30.2398 62.228C30.8039 62.7247 31.5303 63 32.2844 63H32.4725C34.1634 63 35.5392 61.6331 35.5605 59.9477C37.2331 59.9263 38.5876 58.5718 38.6089 56.8993C40.2825 56.878 41.638 55.5215 41.6573 53.8479C43.3462 53.8082 44.7097 52.4284 44.7097 50.7301C44.7097 50.6279 44.7047 50.5271 44.6943 50.4254L63 41.2733V26.4194ZM2.03226 26.4194H2.77302L10.0809 30.6819L6.39348 45.4311L2.03226 43.9769V26.4194ZM10.326 46.742L8.32601 46.0756L11.9083 31.7481L14.2258 33.0996V33.3899L10.4114 46.742H10.326ZM17.2742 49.6673C17.2742 49.3676 17.3953 49.0739 17.6076 48.8616L19.3938 47.0754C19.6061 46.863 19.8999 46.742 20.1995 46.742C20.8277 46.742 21.3387 47.253 21.3387 47.8811C21.3387 48.1808 21.2176 48.4746 21.0053 48.6869L19.2191 50.4731C19.0068 50.6854 18.713 50.8065 18.4134 50.8065C17.7852 50.8065 17.2742 50.2954 17.2742 49.6673ZM20.3226 52.7157C20.3226 52.416 20.4436 52.1223 20.656 51.9099L22.4422 50.1238C22.6545 49.9114 22.9482 49.7904 23.2479 49.7904C23.8761 49.7904 24.3871 50.3014 24.3871 50.9295C24.3871 51.2292 24.266 51.5229 24.0537 51.7353L22.2675 53.5215C22.0552 53.7338 21.7614 53.8549 21.4618 53.8549C20.8336 53.8549 20.3226 53.3438 20.3226 52.7157ZM23.371 55.7641C23.371 55.4644 23.492 55.1707 23.7044 54.9583L25.4905 53.1722C25.7029 52.9598 25.9966 52.8387 26.2963 52.8387C26.9244 52.8387 27.4355 53.3498 27.4355 53.9779C27.4355 54.2776 27.3144 54.5713 27.1021 54.7837L25.3159 56.5698C25.1035 56.7822 24.8098 56.9033 24.5101 56.9033C23.882 56.9033 23.371 56.3922 23.371 55.7641ZM27.5585 59.9516C26.9304 59.9516 26.4194 59.4406 26.4194 58.8125C26.4194 58.5128 26.5404 58.2191 26.7528 58.0067L28.5389 56.2206C28.7513 56.0082 29.045 55.8871 29.3447 55.8871C29.9728 55.8871 30.4839 56.3982 30.4839 57.0263C30.4839 57.326 30.3628 57.6197 30.1505 57.8321L28.3643 59.6182C28.1519 59.8306 27.8582 59.9516 27.5585 59.9516ZM32.4725 60.9678H32.2844C32.0254 60.9678 31.7774 60.8735 31.5843 60.7023L30.8242 60.032L31.5873 59.2689C31.8597 58.9965 32.0711 58.6726 32.2274 58.3247L33.1512 59.0938C33.3928 59.2952 33.5323 59.5919 33.5323 59.908C33.5323 60.4925 33.0569 60.9678 32.4725 60.9678ZM41.5849 51.8226H41.4092C41.1542 51.8226 40.9051 51.7323 40.7102 51.5686L35.1998 46.9767L33.8979 48.5386L39.249 52.997C39.4896 53.1985 39.629 53.4952 39.629 53.8112C39.629 54.3957 39.1537 54.871 38.5692 54.871H38.3475C38.1009 54.871 37.8597 54.7837 37.6697 54.6249L32.1505 50.026L30.8485 51.5879L36.1996 56.0469C36.4412 56.2468 36.5806 56.5435 36.5806 56.8596C36.5806 57.4441 36.1053 57.9194 35.5209 57.9194C35.1309 57.9194 34.7508 57.781 34.4516 57.5324L32.1837 55.642C31.6841 54.6209 30.6575 53.909 29.4553 53.8663C29.3968 52.2086 28.0646 50.8764 26.4069 50.8179C26.3484 49.1602 25.0162 47.8281 23.3586 47.7695C23.299 46.0732 21.9098 44.7097 20.1995 44.7097C19.3645 44.7097 18.5473 45.0481 17.9569 45.6385L16.1707 47.4247C16.0641 47.5314 15.9758 47.6524 15.8859 47.7725L12.7646 45.8995L15.5009 36.3227L22.3608 34.7975C24.1604 34.3951 26.0577 34.4824 27.8126 35.0441L29.3095 35.5229L24.2348 38.0602C23.0753 38.6412 22.3548 39.8077 22.3548 41.1046V41.3056C22.3548 43.1825 23.882 44.7097 25.759 44.7097C26.3757 44.7097 26.9825 44.542 27.5099 44.224L31.2936 41.9551C32.0537 41.4996 33.0738 41.5993 33.7302 42.1897L42.3157 49.9164C42.5454 50.1248 42.6774 50.4205 42.6774 50.7301C42.6774 51.3329 42.1877 51.8226 41.5849 51.8226ZM60.9677 40.0171L43.8488 48.5773C43.7933 48.5182 43.7352 48.4621 43.6742 48.4076L35.0902 40.6809C34.338 40.0022 33.3655 39.6291 32.3524 39.6291C31.6116 39.6291 30.8843 39.8305 30.2472 40.2125L26.462 42.4825C26.2497 42.6105 26.007 42.6775 25.759 42.6775C25.0018 42.6775 24.3871 42.0627 24.3871 41.3056V41.1046C24.3871 40.5812 24.6778 40.1118 25.1452 39.8781L30.8133 37.0441C31.7833 36.5584 32.9349 36.4497 33.9803 36.7504L40.3658 38.5742L41.9123 38.6129L60.9677 28.5836V40.0171Z" fill="#02133C"/>
</g>
<defs>
<clipPath id="clip0">
<rect width="63" height="63" fill="white"/>
</clipPath>
</defs>
</svg>
