<svg width="24" height="24" viewBox="0 0 24 24" fill="none" xmlns="http://www.w3.org/2000/svg">
<path fill-rule="evenodd" clip-rule="evenodd" d="M18.2963 11.97C17.9563 12.59 17.2963 13 16.5463 13H9.09634L7.99634 15H19.9963V17H7.99634C6.47634 17 5.51634 15.37 6.24634 14.03L7.59634 11.59L3.99634 4H1.99634V2H5.26634L6.20634 4H21.0063C21.7663 4 22.2463 4.82 21.8763 5.48L18.2963 11.97ZM19.3063 6H7.15634L9.52634 11H16.5463L19.3063 6ZM7.99634 18C6.89634 18 6.00634 18.9 6.00634 20C6.00634 21.1 6.89634 22 7.99634 22C9.09634 22 9.99634 21.1 9.99634 20C9.99634 18.9 9.09634 18 7.99634 18ZM16.0063 20C16.0063 18.9 16.8963 18 17.9963 18C19.0963 18 19.9963 18.9 19.9963 20C19.9963 21.1 19.0963 22 17.9963 22C16.8963 22 16.0063 21.1 16.0063 20Z" fill="#4B4B4B"/>
</svg>
