<svg width="16" height="16" viewBox="0 0 16 16" fill="none" xmlns="http://www.w3.org/2000/svg">
<path fill-rule="evenodd" clip-rule="evenodd" d="M6.66774 1H9.33441C9.70108 1 10.0011 1.3 10.0011 1.66667C10.0011 2.03333 9.70108 2.33333 9.33441 2.33333H6.66774C6.30108 2.33333 6.00108 2.03333 6.00108 1.66667C6.00108 1.3 6.30108 1 6.66774 1ZM8.66774 9C8.66774 9.36667 8.36774 9.66667 8.00108 9.66667C7.63441 9.66667 7.33441 9.36667 7.33441 9V6.33333C7.33441 5.96667 7.63441 5.66667 8.00108 5.66667C8.36774 5.66667 8.66774 5.96667 8.66774 6.33333V9ZM12.6877 5.26L13.1877 4.76C13.441 4.50667 13.4477 4.08667 13.1877 3.82667L13.181 3.82C12.921 3.56 12.5077 3.56667 12.2477 3.82L11.7477 4.32C10.7144 3.49333 9.41438 3 8.00104 3C4.80104 3 2.08104 5.64 2.00104 8.84C1.91438 12.2267 4.62771 15 8.00104 15C11.321 15 14.001 12.3133 14.001 9C14.001 7.58667 13.5077 6.28667 12.6877 5.26ZM3.33441 9C3.33441 11.58 5.42108 13.6667 8.00108 13.6667C10.5811 13.6667 12.6677 11.58 12.6677 9C12.6677 6.42 10.5811 4.33333 8.00108 4.33333C5.42108 4.33333 3.33441 6.42 3.33441 9Z" fill="#C40B0B"/>
</svg>
