<svg width="22" height="17" viewBox="0 0 22 17" fill="none" xmlns="http://www.w3.org/2000/svg">
<path d="M21.46 2C20.69 2.35 19.86 2.58 19 2.69C19.88 2.16 20.56 1.32 20.88 0.31C20.05 0.81 19.13 1.16 18.16 1.36C17.37 0.5 16.26 0 15 0C12.65 0 10.73 1.92 10.73 4.29C10.73 4.63 10.77 4.96 10.84 5.27C7.28004 5.09 4.11004 3.38 2.00004 0.79C1.63004 1.42 1.42004 2.16 1.42004 2.94C1.42004 4.43 2.17004 5.75 3.33004 6.5C2.62004 6.5 1.96004 6.3 1.38004 6C1.38004 6 1.38004 6 1.38004 6.03C1.38004 8.11 2.86004 9.85 4.82004 10.24C4.46004 10.34 4.08004 10.39 3.69004 10.39C3.42004 10.39 3.15004 10.36 2.89004 10.31C3.43004 12 5.00004 13.26 6.89004 13.29C5.43004 14.45 3.58004 15.13 1.56004 15.13C1.22004 15.13 0.880039 15.11 0.540039 15.07C2.44004 16.29 4.70004 17 7.12004 17C15 17 19.33 10.46 19.33 4.79C19.33 4.6 19.33 4.42 19.32 4.23C20.16 3.63 20.88 2.87 21.46 2Z" fill="#C40B0B"/>
</svg>
