<svg width="174" height="39" viewBox="0 0 174 39" fill="none" xmlns="http://www.w3.org/2000/svg">
<path d="M50.3921 10.9878H54.7869V28.4306H50.3921V10.9878ZM56.5302 21.8446C56.5302 17.5307 59.2256 14.9567 63.3861 14.9567C67.5465 14.9567 70.2419 17.5307 70.2419 21.8446C70.2419 26.1586 67.6051 28.747 63.3861 28.747C59.167 28.747 56.5302 26.2305 56.5302 21.8446ZM65.8325 21.8446C65.8325 19.4719 64.8803 18.0771 63.3861 18.0771C61.8918 18.0771 60.9543 19.5151 60.9543 21.8446C60.9543 24.1742 61.8772 25.5834 63.3861 25.5834C64.8949 25.5834 65.8325 24.2605 65.8325 21.859V21.8446ZM71.8973 29.279H76.1163C76.3171 29.7169 76.6566 30.0794 77.0842 30.3126C77.5118 30.5458 78.0047 30.6372 78.4895 30.5732C80.1596 30.5732 81.0385 29.6817 81.0385 28.3875V25.9717H80.9506C80.6005 26.7121 80.0323 27.3325 79.3194 27.7529C78.6066 28.1732 77.7817 28.3742 76.9514 28.33C73.7431 28.33 71.619 25.9285 71.619 21.8015C71.619 17.6745 73.6406 15.0717 77.01 15.0717C77.8663 15.0387 78.7125 15.2635 79.4352 15.7158C80.1578 16.1681 80.7224 16.8265 81.0532 17.6026V15.2011H85.448V28.2868C85.448 31.436 82.6206 33.3917 78.4456 33.3917C74.5635 33.3917 72.1464 31.6805 71.8973 29.2934V29.279ZM81.0532 21.8302C81.0532 19.7308 80.0717 18.4078 78.5188 18.4078C76.966 18.4078 76.0138 19.7164 76.0138 21.8302C76.0138 23.9441 76.9514 25.1376 78.5188 25.1376C80.0863 25.1376 81.0532 23.9729 81.0532 21.8446V21.8302ZM87.1033 21.8302C87.1033 17.5163 89.7988 14.9423 93.9592 14.9423C98.1197 14.9423 100.83 17.5163 100.83 21.8302C100.83 26.1442 98.1929 28.7326 93.9592 28.7326C89.7256 28.7326 87.1033 26.2305 87.1033 21.8446V21.8302ZM96.4057 21.8302C96.4057 19.4576 95.4535 18.0627 93.9592 18.0627C92.465 18.0627 91.6007 19.5151 91.6007 21.859C91.6007 24.2029 92.5236 25.5978 94.0178 25.5978C95.5121 25.5978 96.4057 24.2605 96.4057 21.859V21.8302ZM102.5 12.0663C102.488 11.6307 102.609 11.2016 102.846 10.8334C103.083 10.4651 103.427 10.1743 103.832 9.99775C104.238 9.82122 104.688 9.76694 105.125 9.84179C105.563 9.91665 105.968 10.1173 106.288 10.4182C106.609 10.7191 106.832 11.1069 106.928 11.5322C107.025 11.9575 106.99 12.4014 106.829 12.8074C106.668 13.2134 106.388 13.5633 106.024 13.8129C105.66 14.0624 105.229 14.2002 104.785 14.2089C104.491 14.2287 104.196 14.1886 103.918 14.0911C103.64 13.9936 103.386 13.8408 103.172 13.6423C102.957 13.4438 102.787 13.2039 102.671 12.9376C102.555 12.6714 102.497 12.3845 102.5 12.0951V12.0663ZM102.5 15.2299H106.895V28.4306H102.5V15.2299ZM122.848 21.8302C122.848 26.1442 120.899 28.6032 117.559 28.6032C116.703 28.6572 115.85 28.4516 115.117 28.0144C114.383 27.5772 113.804 26.9294 113.458 26.1586H113.37V32.6583H108.975V15.2011H113.37V17.5594H113.458C113.788 16.7759 114.356 16.1112 115.084 15.6558C115.813 15.2004 116.667 14.9764 117.53 15.0142C120.899 15.0717 122.906 17.545 122.906 21.859L122.848 21.8302ZM118.453 21.8302C118.453 19.7308 117.471 18.3935 115.933 18.3935C114.395 18.3935 113.414 19.7452 113.399 21.8302C113.384 23.9153 114.395 25.2527 115.933 25.2527C117.471 25.2527 118.453 23.9441 118.453 21.859V21.8302ZM130.392 14.9279C134.04 14.9279 136.252 16.6247 136.354 19.3425H132.355C132.355 18.4078 131.564 17.8183 130.348 17.8183C129.132 17.8183 128.59 18.2784 128.59 18.9543C128.59 19.6301 129.074 19.8458 130.055 20.0471L132.868 20.608C135.549 21.1688 136.691 22.2329 136.691 24.2317C136.691 26.9639 134.157 28.7182 130.421 28.7182C126.686 28.7182 124.239 26.9639 124.049 24.2748H128.283C128.414 25.2527 129.206 25.8279 130.495 25.8279C131.784 25.8279 132.37 25.4108 132.37 24.7206C132.37 24.0304 131.96 23.8866 130.905 23.6709L128.371 23.1388C125.748 22.6068 124.371 21.2407 124.371 19.2275C124.401 16.6391 126.759 14.9567 130.392 14.9567V14.9279ZM151.355 28.4019H147.122V25.9429H147.034C146.801 26.7685 146.288 27.4911 145.579 27.9907C144.87 28.4903 144.008 28.7369 143.137 28.6895C142.469 28.7267 141.801 28.6229 141.178 28.3849C140.555 28.147 139.991 27.7804 139.524 27.3102C139.057 26.8399 138.699 26.2767 138.473 25.6588C138.247 25.0409 138.159 24.3826 138.215 23.7284V15.2011H142.61V22.7362C142.61 24.3036 143.43 25.1376 144.792 25.1376C145.112 25.1383 145.428 25.0719 145.719 24.9429C146.01 24.8139 146.27 24.6253 146.481 24.3897C146.692 24.1541 146.849 23.877 146.942 23.5769C147.035 23.2769 147.061 22.9608 147.019 22.6499V15.2011H151.414L151.355 28.4019ZM153.48 15.2011H157.728V17.7464H157.816C158.049 16.9317 158.551 16.216 159.243 15.7112C159.934 15.2064 160.777 14.941 161.639 14.9567C162.516 14.8877 163.387 15.1453 164.079 15.6782C164.772 16.2111 165.234 16.9803 165.375 17.8326H165.463C165.728 16.9712 166.279 16.221 167.027 15.7003C167.775 15.1796 168.678 14.918 169.594 14.9567C170.191 14.9369 170.787 15.0409 171.341 15.2617C171.895 15.4826 172.395 15.8154 172.81 16.2385C173.224 16.6616 173.543 17.1656 173.747 17.7177C173.95 18.2699 174.032 18.8577 173.989 19.4432V28.4306H169.594V20.5936C169.594 19.1556 168.935 18.4941 167.704 18.4941C167.43 18.4918 167.158 18.5473 166.907 18.6569C166.657 18.7665 166.433 18.9276 166.251 19.1293C166.069 19.331 165.933 19.5686 165.853 19.8262C165.773 20.0838 165.749 20.3552 165.785 20.6223V28.4306H161.61V20.5361C161.61 19.2131 160.951 18.4941 159.749 18.4941C159.472 18.4942 159.198 18.552 158.944 18.6638C158.691 18.7756 158.465 18.9388 158.281 19.1426C158.097 19.3465 157.959 19.5863 157.876 19.8463C157.794 20.1063 157.768 20.3806 157.801 20.6511V28.4306H153.406L153.48 15.2011Z" fill="#02133C"/>
<path d="M38.1013 11.7788C37.3558 10.1055 36.3691 8.54614 35.1715 7.14851C33.401 5.02077 31.1916 3.2852 28.6886 2.05602C26.1857 0.826844 23.4459 0.131934 20.6496 0.0170269C17.8533 -0.0978801 15.0639 0.369818 12.465 1.38935C9.86614 2.40887 7.51669 3.95711 5.57129 5.93216C3.62589 7.9072 2.12865 10.2643 1.17813 12.8482C0.227602 15.4322 -0.154663 18.1845 0.0564947 20.9239C0.267652 23.6634 1.06744 26.3278 2.40323 28.742C3.73901 31.1562 5.5805 33.2653 7.8065 34.9305C9.23482 36.0203 10.8131 36.9063 12.4943 37.562C14.8514 38.5102 17.3741 38.9986 19.9215 39C25.1797 38.9886 30.2189 36.9311 33.9343 33.2787C37.6497 29.6262 39.7382 24.6768 39.7421 19.5152C39.7459 16.8528 39.1873 14.2186 38.1013 11.7788ZM19.9069 3.97055C22.1944 3.97031 24.4544 4.4611 26.5284 5.40854C26.0226 5.62304 25.4909 5.77286 24.9462 5.85432C23.154 6.10898 21.4938 6.92573 20.2133 8.18267C18.9328 9.43961 18.1007 11.0693 17.8413 12.8286C17.7274 13.8152 17.2703 14.7331 16.547 15.4273C15.8238 16.1215 14.8787 16.5496 13.8713 16.6392C12.0791 16.8939 10.4189 17.7107 9.13838 18.9676C7.85788 20.2245 7.02583 21.8543 6.7664 23.6135C6.67856 24.5516 6.2708 25.4332 5.6091 26.1156C4.46741 23.7476 3.95453 21.1346 4.11819 18.5197C4.28186 15.9049 5.11673 13.3731 6.54514 11.1601C7.97355 8.94714 9.94906 7.12481 12.2878 5.86273C14.6266 4.60064 17.2526 3.93983 19.9215 3.94179L19.9069 3.97055ZM7.79185 29.5812C7.96764 29.423 8.14344 29.2792 8.31923 29.1066C9.62251 27.8663 10.4591 26.229 10.6924 24.4619C10.787 23.4686 11.2388 22.5408 11.9669 21.8448C12.6675 21.1289 13.6105 20.6891 14.6184 20.6081C16.4107 20.3534 18.0709 19.5367 19.3514 18.2797C20.6319 17.0228 21.4639 15.3931 21.7234 13.6338C21.7867 12.5949 22.2409 11.6161 22.9979 10.8873C23.7158 10.1853 24.6678 9.76149 25.6787 9.69375C27.3252 9.47138 28.8607 8.7529 30.0735 7.63743C31.4544 8.76204 32.6244 10.1149 33.5307 11.635C33.4751 11.7089 33.4112 11.7764 33.3403 11.8364C32.641 12.5585 31.6992 13.008 30.6888 13.1018C28.8947 13.352 27.232 14.1673 25.9506 15.4251C24.6693 16.6828 23.8387 18.315 23.5838 20.076C23.4806 21.066 23.0319 21.9905 22.3137 22.6928C21.5955 23.3952 20.652 23.8322 19.6432 23.9299C17.8457 24.1826 16.1793 24.9977 14.8914 26.2541C13.6035 27.5106 12.7628 29.1413 12.4943 30.9041C12.4154 31.6069 12.1696 32.2817 11.7765 32.8742C10.2734 31.9982 8.9273 30.8857 7.79185 29.5812ZM19.9069 35.1318C18.4203 35.1334 16.941 34.9301 15.5121 34.5278C16.0008 33.6334 16.3186 32.6587 16.4496 31.6519C16.5523 30.6641 16.9989 29.7414 17.7141 29.0393C18.4293 28.3372 19.3694 27.8988 20.3756 27.7981C22.1705 27.5463 23.8341 26.7308 25.1174 25.4736C26.4008 24.2164 27.235 22.5851 27.4952 20.8238C27.5979 19.8361 28.0445 18.9133 28.7597 18.2112C29.4749 17.5092 30.415 17.0708 31.4212 16.97C32.7719 16.7975 34.0593 16.3039 35.1715 15.532C35.789 17.8298 35.8622 20.2359 35.3853 22.5657C34.9085 24.8955 33.8942 27.0872 32.4205 28.9725C30.9468 30.8579 29.0527 32.3868 26.8835 33.442C24.7143 34.4972 22.3278 35.0507 19.9069 35.0599V35.1318Z" fill="#C40B0B"/>
</svg>
